<?xml version="1.0" encoding="UTF-8"?>
<svg width="764px" height="764px" viewBox="0 0 764 764" version="1.1" xmlns="http://www.w3.org/2000/svg" xmlns:xlink="http://www.w3.org/1999/xlink">
    <title>local-logo</title>
    <defs>
        <linearGradient x1="14.8591797%" y1="2.64656863%" x2="102.242188%" y2="89.692402%" id="linearGradient-1">
            <stop stop-color="#B11818" offset="0%"></stop>
            <stop stop-color="#BF2944" offset="100%"></stop>
        </linearGradient>
    </defs>
    <g id="Page-1" stroke="none" stroke-width="1" fill="none" fill-rule="evenodd">
        <g id="local-logo" transform="translate(0.4017, 0.4017)" fill-rule="nonzero">
            <path d="M424.929482,97.4430696 L477.229032,149.743017 L551.235446,149.743316 C584.397324,149.743316 608.93103,178.780108 607.834488,210.268796 C607.068295,232.2696 607.583026,258.99715 611.715079,284.229783 L665.20898,337.722568 C688.657969,361.171557 685.473806,399.051619 662.432569,420.542111 C646.005933,435.863114 627.042454,455.607014 611.970993,476.85518 C607.604493,502.536104 607.052712,529.905563 607.834488,552.354675 C608.93103,583.842227 584.397324,612.879019 551.235446,612.879019 L475.581982,612.879997 C454.818899,627.800103 435.556458,646.334704 420.541324,662.433356 C399.051635,685.47379 361.171572,688.657953 337.722583,665.208964 L285.393032,612.879017 L211.428921,612.879019 C178.267042,612.879019 153.733336,583.842227 154.831013,552.354675 C155.595882,530.367393 155.082096,503.660128 150.956954,478.441942 L97.4430852,424.929466 C73.9940961,401.480477 77.1782591,363.600414 100.219496,342.111527 C116.649224,326.786449 135.616751,307.037693 150.689255,285.784553 C155.05963,260.098375 155.611827,232.722014 154.829878,210.268796 C153.733336,178.780108 178.267042,149.743316 211.428921,149.743316 L287.108793,149.743689 C307.857248,134.82876 327.104797,116.30746 342.109938,100.21948 C363.60043,77.1782435 401.480492,73.9940804 424.929482,97.4430696 Z" id="Combined-Shape" fill="url(#linearGradient-1)" transform="translate(381.326, 381.3261) rotate(19) translate(-381.326, -381.3261)"></path>
            <path d="M393.057183,254.556234 L376.60913,237.721834 C350.686815,211.202513 302.214379,219.973761 284.619321,254.167924 C276.590285,269.814551 274.273335,293.158863 290.033185,324.109491 C304.967191,353.529719 336.16573,389.322808 393.057183,428.656374 C449.925695,389.299966 481.124234,353.506878 496.08118,324.109491 C511.84103,293.158863 509.54702,269.814551 501.495044,254.190766 C483.899986,219.973761 435.427551,211.202513 409.505236,237.721834 L393.057183,254.556234 Z M381.192573,449.057316 C135.143043,278.874065 312.718678,148.148624 389.386615,218.875319 C390.421332,219.820782 391.425616,220.804368 392.399467,221.826077 C393.388534,220.804368 394.392818,219.820782 395.412318,218.875319 C472.10308,148.148624 649.610241,278.896939 403.560712,449.057316 L408.9245,459.762392 C409.837799,461.592948 409.707244,463.772747 408.582013,465.480679 C407.456782,467.188612 405.507825,468.165202 403.469295,468.042578 C401.430766,467.919954 399.612364,466.716745 398.699065,464.886188 L398.516468,464.497329 C398.699065,467.013479 398.972961,469.117896 399.360979,471.130816 C400.593509,477.306821 403.035745,482.293373 408.9245,494.073531 C415.497994,507.294757 414.288288,520.378738 410.659172,531.335428 C407.075705,542.063378 401.027177,551.167267 397.238289,556.840042 L397.14699,557.000161 C396.013521,558.699963 394.061279,559.664636 392.025656,559.530797 C389.990032,559.396957 388.180286,558.184939 387.278132,556.351298 C386.375978,554.517656 386.518474,552.340965 387.651943,550.641163 C391.486481,544.876891 396.781796,536.916707 399.817472,527.698448 C402.853148,518.640307 403.537887,508.850195 398.699065,499.197328 L398.402345,498.556853 C392.924433,487.577289 389.728985,481.218291 388.17691,473.349603 C387.522993,469.953369 387.126235,466.512449 386.990029,463.056261 L386.077044,464.886188 C385.173217,466.72922 383.352688,467.945055 381.307434,468.071555 C379.262181,468.198055 377.306285,467.215795 376.183178,465.49813 C375.060072,463.780466 374.942226,461.591171 375.874433,459.762392 L381.238222,449.057316 L381.192573,449.057316 Z M304.98264,264.734065 C302.008968,270.660531 299.421193,280.560945 303.166657,295.40008 C304.596743,301.004955 312.564368,299.948298 314.221452,294.412336 C318.988406,278.40169 328.454216,261.173591 345.070458,255.545746 C349.996311,253.868878 351.971192,247.804587 346.97724,246.403368 C332.24508,242.268625 313.31346,248.309945 304.98264,264.734065 Z" id="Shape" fill="#FFFFFF" transform="translate(392.3871, 379.4052) rotate(168) translate(-392.3871, -379.4052)"></path>
            <path d="M375.848341,207.692075 C375.848341,202.535825 374.129591,193.942075 367.254591,187.067075 C368.113966,192.223325 362.957716,193.942075 362.957716,193.942075 C365.535841,185.348325 358.660841,173.317075 348.348341,171.598325 C349.575529,178.473325 350.067091,185.348325 341.473341,192.223325 C337.176466,195.660825 334.598341,201.604263 334.598341,207.692075 C334.598341,219.723325 343.831466,226.598325 355.223341,226.598325 C366.615216,226.598325 375.848341,219.723325 375.848341,207.692075 Z M344.598341,213.3952 C344.598341,210.817075 345.483758,206.5202 349.025424,203.0827 C348.582716,205.660825 351.681674,207.379575 351.681674,207.379575 C350.353549,203.0827 353.452508,196.2077 358.765008,195.348325 C358.131049,198.785825 357.879591,202.223325 362.306674,205.660825 C364.520216,207.379575 365.848341,210.349575 365.848341,213.3952 C365.848341,219.410825 361.091883,222.848325 355.223341,222.848325 C349.354799,222.848325 344.598341,219.410825 344.598341,213.3952 Z" id="Shape" fill="#FFFFFF"></path>
        </g>
    </g>
</svg>